<svg width="24" height="26" viewBox="0 0 24 26" fill="none" xmlns="http://www.w3.org/2000/svg">
<path d="M23.2727 3.09091H16V0.727273C16 0.327273 15.6727 0 15.2727 0H8.72727C8.32727 0 8 0.327273 8 0.727273V3.09091H0.727273C0.327273 3.09091 0 3.41818 0 3.81818C0 4.21818 0.327273 4.54545 0.727273 4.54545H3.12727V24.7273C3.12727 25.1273 3.45455 25.4545 3.85455 25.4545H20.1455C20.5455 25.4545 20.8727 25.1273 20.8727 24.7273V4.54545H23.2727C23.6727 4.54545 24 4.21818 24 3.81818C24 3.41818 23.6727 3.09091 23.2727 3.09091ZM9.45455 1.45455H14.5455V2.90909H9.45455V1.45455ZM19.4182 24H4.58182V4.54545H19.4182V24ZM16 8.47273V20.1091C16 20.5091 15.6727 20.8364 15.2727 20.8364C14.8727 20.8364 14.5455 20.5091 14.5455 20.1091V8.47273C14.5455 8.07273 14.8727 7.74545 15.2727 7.74545C15.6727 7.74545 16 8.03636 16 8.47273ZM9.45455 8.47273V20.1091C9.45455 20.5091 9.12727 20.8364 8.72727 20.8364C8.32727 20.8364 8 20.5091 8 20.1091V8.47273C8 8.07273 8.32727 7.74545 8.72727 7.74545C9.12727 7.74545 9.45455 8.03636 9.45455 8.47273Z" fill="white"/>
</svg>
